<svg xmlns="http://www.w3.org/2000/svg" viewBox="0 0 240 240" role="img">
  <title>Mineradio+</title>
  <rect width="240" height="240" rx="52" fill="#0F1115"/>

  <line x1="60" y1="49" x2="60" y2="145" stroke="#ffffff" stroke-width="18" stroke-linecap="round"/>
  <line x1="180" y1="49" x2="180" y2="145" stroke="#ffffff" stroke-width="18" stroke-linecap="round"/>

  <path d="M 96,63 L 145,97 L 96,131 Z" 
        fill="#35C7C9" stroke="#35C7C9" stroke-width="16" stroke-linejoin="round"/>

  <path d="M50.03 193L47.73 193L47.73 185.49Q47.73 185.24 47.74 184.98Q47.74 184.73 47.82 182.80Q47.20 185.16 46.90 186.09L44.66 193L42.82 193L40.59 186.09L39.65 182.80Q39.75 184.83 39.75 185.49L39.75 193L37.45 193L37.45 180.62L40.92 180.62L43.14 187.54L43.33 188.21L43.75 189.87L44.30 187.88L46.58 180.62L50.03 180.62 M61.04 193L58.44 193L58.44 180.62L61.04 180.62 M80.03 193L76.98 193L71.59 183.46Q71.75 184.85 71.75 185.70L71.75 193L69.44 193L69.44 180.62L72.41 180.62L77.88 190.23Q77.72 188.90 77.72 187.81L77.72 180.62L80.03 180.62 M98.54 193L88.44 193L88.44 180.62L98.18 180.62L98.18 182.62L91.04 182.62L91.04 185.73L97.65 185.73L97.65 187.74L91.04 187.74L91.04 191L98.54 191 M117.87 193L114.96 193L112.08 188.30L109.04 188.30L109.04 193L106.45 193L106.45 180.62L112.64 180.62Q114.85 180.62 116.06 181.57Q117.26 182.52 117.26 184.31Q117.26 185.61 116.52 186.55Q115.78 187.50 114.53 187.80L117.87 193M114.65 184.41Q114.65 182.63 112.36 182.63L109.04 182.63L109.04 186.29L112.43 186.29Q113.52 186.29 114.09 185.79Q114.65 185.30 114.65 184.41 M136.77 193L134.20 193L133.10 189.84L128.38 189.84L127.28 193L124.69 193L129.21 180.62L132.27 180.62L136.77 193M130.92 183.13L130.74 182.52L130.69 182.72Q130.60 183.03 130.48 183.44Q130.35 183.84 128.96 187.88L132.52 187.88L131.30 184.33 M155.49 186.72Q155.49 188.63 154.73 190.06Q153.98 191.49 152.61 192.24Q151.23 193 149.46 193L144.45 193L144.45 180.62L148.93 180.62Q152.06 180.62 153.77 182.19Q155.49 183.77 155.49 186.72M152.88 186.72Q152.88 184.72 151.84 183.67Q150.80 182.62 148.88 182.62L147.04 182.62L147.04 191L149.24 191Q150.91 191 151.89 189.84Q152.88 188.69 152.88 186.72 M166.04 193L163.45 193L163.45 180.62L166.04 180.62 M186.49 186.75Q186.49 188.68 185.72 190.15Q184.96 191.62 183.53 192.40Q182.11 193.18 180.21 193.18Q177.29 193.18 175.64 191.46Q173.98 189.74 173.98 186.75Q173.98 183.77 175.63 182.10Q177.29 180.43 180.23 180.43Q183.17 180.43 184.83 182.12Q186.49 183.81 186.49 186.75M183.84 186.75Q183.84 184.75 182.89 183.61Q181.94 182.47 180.23 182.47Q178.49 182.47 177.54 183.60Q176.59 184.73 176.59 186.75Q176.59 188.79 177.56 189.96Q178.53 191.14 180.21 191.14Q181.95 191.14 182.90 189.99Q183.84 188.85 183.84 186.75 M203.03 188L199.49 188L199.49 191.58L197.51 191.58L197.51 188L194 188L194 186.03L197.51 186.03L197.51 182.44L199.49 182.44L199.49 186.03L203.03 186.03" fill="#F0ECE4"/>

  <path d="M91.58 208.34Q91.58 209.65 91.05 210.37Q90.53 211.10 89.55 211.10Q88.99 211.10 88.58 210.85Q88.17 210.61 87.95 210.15L87.94 210.15Q87.94 210.32 87.92 210.62Q87.90 210.92 87.87 211L86.54 211Q86.58 210.55 86.58 209.79L86.58 203.75L87.95 203.75L87.95 205.78L87.93 206.63L87.95 206.63Q88.41 205.62 89.64 205.62Q90.58 205.62 91.08 206.33Q91.58 207.04 91.58 208.34M90.15 208.34Q90.15 207.44 89.88 207.01Q89.62 206.57 89.07 206.57Q88.51 206.57 88.22 207.04Q87.93 207.50 87.93 208.38Q87.93 209.22 88.22 209.69Q88.50 210.16 89.06 210.16Q90.15 210.16 90.15 208.34 M96.37 213.08Q95.88 213.08 95.51 213.01L95.51 212.04Q95.76 212.07 95.98 212.07Q96.27 212.07 96.46 211.98Q96.66 211.89 96.81 211.67Q96.97 211.46 97.16 210.95L95.07 205.72L96.52 205.72L97.35 208.19Q97.54 208.72 97.84 209.82L97.96 209.36L98.28 208.21L99.06 205.72L100.50 205.72L98.41 211.28Q97.99 212.29 97.53 212.68Q97.08 213.08 96.37 213.08 M115.93 204.12L113.40 211L111.94 211L109.40 204.12L110.90 204.12L112.32 208.54Q112.45 208.97 112.68 209.84L112.78 209.42L113.03 208.54L114.44 204.12 M120.92 211.10Q120.15 211.10 119.72 210.68Q119.29 210.26 119.29 209.51Q119.29 208.69 119.83 208.26Q120.36 207.83 121.38 207.82L122.51 207.80L122.51 207.53Q122.51 207.01 122.33 206.76Q122.15 206.51 121.74 206.51Q121.36 206.51 121.18 206.68Q121 206.85 120.96 207.25L119.53 207.19Q119.66 206.42 120.24 206.02Q120.81 205.62 121.80 205.62Q122.80 205.62 123.34 206.11Q123.89 206.61 123.89 207.51L123.89 209.44Q123.89 209.88 123.99 210.05Q124.09 210.22 124.32 210.22Q124.48 210.22 124.62 210.19L124.62 210.93Q124.50 210.96 124.40 210.99Q124.31 211.01 124.21 211.02Q124.11 211.04 124 211.05Q123.89 211.06 123.74 211.06Q123.23 211.06 122.98 210.80Q122.73 210.55 122.68 210.06L122.65 210.06Q122.08 211.10 120.92 211.10M122.51 208.82L122.51 208.55L121.81 208.56Q121.33 208.58 121.13 208.67Q120.93 208.75 120.83 208.93Q120.72 209.11 120.72 209.40Q120.72 209.77 120.89 209.96Q121.07 210.14 121.36 210.14Q121.68 210.14 121.94 209.96Q122.21 209.79 122.36 209.48Q122.51 209.17 122.51 208.82 M133.05 211L131.68 211L131.68 208.04Q131.68 206.64 130.74 206.64Q130.24 206.64 129.93 207.07Q129.63 207.50 129.63 208.17L129.63 211L128.26 211L128.26 206.90Q128.26 206.47 128.25 206.20Q128.23 205.93 128.22 205.72L129.53 205.72Q129.54 205.81 129.57 206.21Q129.59 206.62 129.59 206.77L129.61 206.77Q129.89 206.16 130.31 205.89Q130.73 205.61 131.31 205.61Q132.15 205.61 132.60 206.13Q133.05 206.65 133.05 207.65 M139.53 211.10Q138.34 211.10 137.70 210.39Q137.06 209.69 137.06 208.33Q137.06 207.03 137.71 206.32Q138.36 205.62 139.55 205.62Q140.69 205.62 141.29 206.37Q141.89 207.13 141.89 208.58L141.89 208.62L138.50 208.62Q138.50 209.39 138.78 209.79Q139.07 210.18 139.60 210.18Q140.32 210.18 140.52 209.55L141.81 209.66Q141.25 211.10 139.53 211.10M139.53 206.48Q139.05 206.48 138.78 206.82Q138.52 207.16 138.51 207.76L140.56 207.76Q140.52 207.12 140.25 206.80Q139.98 206.48 139.53 206.48 M150.40 211L149.04 211L149.04 208.04Q149.04 206.64 148.24 206.64Q147.82 206.64 147.56 207.07Q147.30 207.49 147.30 208.17L147.30 211L145.93 211L145.93 206.90Q145.93 206.47 145.92 206.20Q145.90 205.93 145.89 205.72L147.20 205.72Q147.21 205.81 147.24 206.21Q147.26 206.62 147.26 206.77L147.28 206.77Q147.53 206.16 147.91 205.89Q148.29 205.61 148.82 205.61Q150.03 205.61 150.29 206.77L150.32 206.77Q150.59 206.15 150.96 205.88Q151.34 205.61 151.92 205.61Q152.69 205.61 153.10 206.14Q153.50 206.66 153.50 207.65L153.50 211L152.14 211L152.14 208.04Q152.14 206.64 151.34 206.64Q150.94 206.64 150.68 207.03Q150.42 207.42 150.40 208.10" fill="#F0ECE4" opacity="0.4"/>

</svg>
